<?xml version="1.0" standalone="no"?>
<!DOCTYPE svg PUBLIC "-//W3C//DTD SVG 20010904//EN"
 "http://www.w3.org/TR/2001/REC-SVG-20010904/DTD/svg10.dtd">
<svg version="1.0" xmlns="http://www.w3.org/2000/svg"
 width="1120.000000pt" height="1120.000000pt" viewBox="0 0 1120.000000 1120.000000"
 preserveAspectRatio="xMidYMid meet">

<g transform="translate(0.000000,1120.000000) scale(0.100000,-0.100000)"
fill="#33367D" stroke="none">
<path d="M7534 6660 c-204 -30 -403 -178 -498 -372 -49 -97 -81 -216 -91 -330
-6 -57 -9 -67 -28 -72 -43 -11 -92 -6 -166 20 -64 22 -88 26 -156 22 -55 -3
-93 -11 -121 -26 -50 -26 -140 -121 -190 -202 -20 -33 -39 -60 -41 -60 -2 0
-1 29 3 64 9 85 -4 216 -21 222 -8 3 -80 -20 -160 -51 -81 -31 -205 -73 -277
-93 l-129 -37 3 -54 3 -55 58 -12 c77 -15 104 -31 117 -67 6 -19 10 -170 10
-407 0 -363 -1 -378 -20 -403 -19 -24 -72 -42 -150 -49 -23 -3 -25 -7 -28 -63
l-3 -60 388 0 c213 0 403 -3 421 -7 l32 -7 0 68 0 68 -71 7 c-82 7 -133 26
-148 54 -7 14 -11 132 -11 345 l0 325 33 63 c66 129 157 144 310 51 31 -19 61
-32 65 -28 4 4 32 55 62 114 l55 107 71 3 71 3 7 -47 c3 -26 6 -244 6 -486 l0
-439 -26 -24 c-16 -14 -48 -28 -82 -35 -112 -21 -102 -14 -100 -78 l1 -57 391
0 c215 0 410 -3 434 -8 l42 -7 0 51 c0 76 -8 85 -87 94 -81 8 -127 26 -142 53
-7 14 -11 174 -11 495 0 424 2 476 16 481 9 3 69 6 134 6 90 0 120 -3 130 -14
6 -8 18 -12 26 -9 10 4 14 25 14 84 l0 78 -157 3 -158 3 -3 205 c-5 305 13
381 91 383 43 1 69 -20 130 -106 23 -32 52 -64 66 -72 73 -36 149 -25 211 32
52 46 67 97 50 170 -20 90 -90 141 -220 162 -71 12 -82 12 -156 1z"/>
<path d="M2300 6516 l0 -63 84 -22 c90 -24 120 -46 135 -98 5 -17 12 -141 16
-277 l8 -246 213 0 c165 0 214 3 214 13 0 6 1 118 3 247 2 228 3 236 26 273
26 42 76 69 149 82 l43 7 -3 71 -3 72 -110 -5 c-164 -7 -577 -6 -682 2 l-93 8
0 -64z m657 -688 c-3 -8 -6 -5 -6 6 -1 11 2 17 5 13 3 -3 4 -12 1 -19z"/>
<path d="M3440 6515 l0 -64 58 -16 c131 -36 156 -56 167 -135 9 -63 25 -79 91
-97 68 -17 97 -43 113 -98 39 -140 -14 -273 -141 -355 -111 -72 -236 -86 -890
-96 l-428 -7 0 -72 0 -72 31 -7 c17 -3 299 -6 625 -6 l594 0 0 -336 c0 -294
-2 -340 -17 -371 -19 -41 -69 -67 -146 -78 -54 -8 -67 -26 -67 -93 l0 -38 378
1 c207 0 406 -2 441 -4 l65 -5 0 64 1 64 -67 12 c-83 16 -103 26 -125 67 -17
30 -18 85 -18 782 0 715 1 753 19 793 16 36 27 45 73 62 29 11 60 20 68 20 39
0 45 11 45 82 l0 69 -127 -8 c-154 -10 -605 -9 -685 0 l-58 7 0 -65z"/>
<path d="M8255 5930 c-132 -15 -388 -116 -491 -195 -33 -25 -34 -29 -34 -93 1
-111 13 -153 56 -189 44 -39 89 -49 138 -33 46 15 68 44 102 133 53 142 66
168 95 182 78 41 205 -17 229 -104 5 -20 10 -84 10 -143 0 -96 -2 -108 -19
-118 -11 -5 -107 -42 -213 -80 -243 -89 -306 -118 -361 -169 -67 -62 -90 -125
-85 -228 4 -70 10 -94 39 -150 45 -89 125 -155 223 -185 125 -38 222 -11 377
107 l74 55 14 -22 c8 -13 38 -46 66 -74 40 -39 63 -54 111 -67 75 -21 106 -21
175 -1 76 23 229 101 236 122 12 30 7 82 -8 97 -13 14 -22 14 -70 1 -69 -17
-107 -5 -131 45 -16 30 -18 71 -18 394 0 199 -5 388 -10 424 -28 168 -139 266
-334 291 -78 10 -73 10 -171 0z m105 -890 l0 -209 -30 -16 c-43 -22 -141 -20
-172 5 -41 32 -60 84 -60 165 1 120 39 171 174 235 35 17 69 30 76 30 9 0 12
-49 12 -210z"/>
<path d="M4922 5910 c-213 -56 -382 -219 -456 -441 -77 -231 -49 -497 71 -672
112 -165 292 -256 504 -257 123 0 191 15 298 67 77 37 108 59 170 122 42 42
84 90 93 108 l18 31 -38 42 -38 43 -54 -42 c-83 -63 -148 -85 -255 -85 -81 -1
-97 2 -158 31 -81 39 -155 111 -191 187 -29 61 -56 164 -56 214 l0 32 193 1
c105 0 269 4 364 8 163 6 174 8 198 31 22 21 25 31 25 95 0 99 -15 169 -51
242 -61 126 -169 211 -314 248 -82 21 -232 19 -323 -5z m217 -156 c38 -32 67
-118 76 -232 l8 -82 -193 0 -193 0 7 48 c16 119 74 233 139 272 48 29 117 27
156 -6z"/>
<path d="M2185 5714 c-5 -1 -21 -5 -35 -8 -42 -9 -60 -53 -60 -148 0 -65 4
-90 20 -115 18 -31 23 -33 75 -33 51 0 59 3 99 40 24 22 53 40 65 40 20 0 21
5 21 80 l0 80 -33 0 c-20 0 -48 11 -73 28 -42 31 -63 41 -79 36z"/>
<path d="M2538 5077 c-4 -228 -6 -257 -24 -287 -29 -49 -62 -69 -139 -83 l-70
-13 -3 -60 -3 -59 446 0 445 0 2 60 1 60 7 -50 7 -50 1 51 2 51 -61 7 c-61 6
-157 41 -146 52 3 4 -1 21 -11 38 -15 27 -17 64 -17 284 l0 252 -216 0 -216 0
-5 -253z"/>
</g>
</svg>
