<?xml version="1.0" standalone="no"?>
<!DOCTYPE svg PUBLIC "-//W3C//DTD SVG 20010904//EN"
 "http://www.w3.org/TR/2001/REC-SVG-20010904/DTD/svg10.dtd">
<svg version="1.0" xmlns="http://www.w3.org/2000/svg"
 width="1120.000000pt" height="1120.000000pt" viewBox="0 0 1120.000000 1120.000000"
 preserveAspectRatio="xMidYMid meet">

<g transform="translate(0.000000,1120.000000) scale(0.100000,-0.100000)"
fill="#000000" stroke="none">
<path d="M2366 6878 c-8 -13 -20 -47 -27 -77 -7 -36 -22 -64 -44 -88 -42 -44
-81 -117 -89 -166 -9 -48 9 -75 104 -163 63 -58 68 -61 132 -68 78 -8 94 -3
114 35 18 36 58 57 142 75 98 20 146 6 165 -47 4 -14 -3 -18 -39 -24 -26 -3
-44 -12 -44 -19 0 -7 -9 -21 -20 -31 -31 -28 -24 -44 24 -56 34 -8 47 -17 54
-37 6 -15 13 -36 17 -47 14 -38 15 -1337 1 -1451 -13 -109 -34 -156 -72 -162
-57 -9 -61 -12 -67 -49 -4 -21 -2 -42 5 -50 8 -10 84 -13 364 -13 205 0 363 4
378 10 23 8 26 15 26 53 l0 44 -56 6 c-30 3 -66 13 -80 21 -55 37 -55 36 -56
403 -1 187 2 346 7 353 6 10 66 12 304 8 336 -6 363 -11 375 -68 3 -18 6 -163
6 -323 0 -273 -1 -293 -21 -333 -20 -42 -55 -64 -100 -64 -21 0 -47 -76 -32
-91 5 -5 178 -8 389 -7 l379 3 3 46 c3 50 -7 59 -67 59 -40 0 -108 46 -120 81
-8 22 -11 271 -11 820 l0 789 28 31 c20 22 45 35 92 48 65 16 65 16 68 55 2
24 -2 42 -10 47 -7 5 -176 9 -375 9 -401 0 -364 6 -377 -65 -6 -28 -2 -32 44
-57 38 -21 56 -40 77 -80 l28 -53 0 -297 c0 -230 -3 -300 -13 -310 -10 -10
-88 -14 -334 -16 -300 -4 -323 -3 -335 14 -24 33 -14 682 11 689 6 2 23 6 39
9 22 5 27 12 27 36 0 26 -5 31 -41 40 -30 8 -39 15 -35 28 3 9 8 29 12 44 11
49 103 112 116 80 4 -11 134 -84 188 -104 25 -10 51 -16 58 -13 7 2 15 -2 18
-10 11 -26 41 -17 55 18 19 45 19 367 1 420 -19 52 -48 47 -80 -11 -17 -30
-29 -41 -39 -37 -9 3 -21 -1 -27 -9 -15 -20 -141 -66 -181 -66 -19 0 -48 11
-71 27 l-39 28 -265 7 c-219 5 -280 10 -348 27 -104 26 -125 37 -154 81 -23
34 -26 35 -95 38 -66 3 -73 1 -87 -20z m1324 -190 c-1 -49 -4 -68 -10 -57 -5
8 -7 24 -5 35 2 10 4 36 4 57 1 20 3 37 6 37 3 0 5 -33 5 -72z m-1195 -46 c-7
-46 -8 -46 -17 -19 -6 15 -7 45 -3 65 6 31 8 34 17 18 6 -10 7 -37 3 -64z
m849 19 c3 -4 -1 -17 -9 -27 -14 -18 -14 -18 -15 9 0 26 13 36 24 18z m-137
-773 c-3 -7 -5 -2 -5 12 0 14 2 19 5 13 2 -7 2 -19 0 -25z m12 -1133 c0 -5 -4
-3 -9 5 -5 8 -9 22 -9 30 0 16 17 -16 18 -35z m248 -272 c-3 -10 -5 -2 -5 17
0 19 2 27 5 18 2 -10 2 -26 0 -35z"/>
<path d="M7561 6635 c-121 -27 -220 -90 -299 -190 -55 -70 -119 -182 -142
-248 -25 -71 -49 -219 -51 -322 -3 -114 -1 -111 -72 -121 -56 -8 -64 -12 -78
-40 l-15 -31 -46 43 c-85 80 -211 93 -331 35 -56 -27 -147 -117 -200 -199
l-42 -63 -3 131 c-2 126 -3 131 -26 141 -19 9 -34 5 -82 -19 -77 -38 -168 -68
-278 -89 l-88 -18 -14 -40 c-17 -50 -16 -51 49 -54 41 -1 102 -58 111 -103 3
-17 6 -202 6 -410 0 -465 -2 -476 -98 -495 -52 -10 -85 -50 -63 -77 12 -14 60
-16 392 -16 l379 0 0 44 c0 50 -8 56 -77 56 -56 0 -107 24 -137 64 -22 29 -24
43 -29 216 -7 260 5 469 32 544 27 76 64 132 103 156 41 25 64 13 90 -49 31
-71 70 -94 167 -95 68 -1 82 2 118 26 47 31 75 84 81 153 l4 51 52 -3 c40 -3
56 -9 74 -29 l23 -26 -4 -567 c-3 -475 -6 -583 -21 -671 -19 -120 -61 -260
-91 -304 -42 -63 -129 -97 -208 -82 -19 3 -52 22 -74 41 -56 47 -81 46 -115
-8 -42 -67 -42 -136 1 -166 28 -20 34 -21 153 -10 156 14 251 38 356 90 152
74 259 201 317 372 50 150 55 225 55 825 l0 552 123 0 c67 0 128 4 135 9 8 4
16 26 19 48 9 66 -6 73 -154 73 l-125 0 5 248 c4 252 13 313 53 398 24 50 63
84 95 84 25 0 29 -4 31 -27 3 -60 1 -100 -6 -149 -7 -45 -6 -53 18 -81 34 -40
119 -67 194 -61 57 5 118 40 154 89 26 35 35 134 17 196 -17 63 -94 141 -164
166 -70 24 -195 30 -274 12z"/>
<path d="M8816 6328 c-20 -29 -122 -40 -132 -14 -5 14 -31 16 -213 16 -178 0
-211 -3 -246 -19 -74 -33 -135 -128 -135 -208 0 -39 6 -56 31 -86 29 -35 80
-73 65 -48 -5 7 -1 9 8 5 9 -3 14 -9 11 -13 -5 -9 0 -10 90 -17 63 -4 75 -2
120 23 67 38 95 87 95 169 0 43 4 63 14 67 7 3 70 9 138 12 119 7 127 6 155
-14 24 -18 34 -20 55 -12 44 17 64 68 26 67 -24 -1 -35 23 -24 51 5 12 9 13
21 3 12 -10 15 -9 15 3 0 38 -71 49 -94 15z m-317 -83 c23 -7 23 -8 -12 -24
-52 -24 -87 -72 -96 -131 -10 -63 -19 -73 -70 -73 -51 0 -83 21 -105 68 -35
73 7 154 85 164 58 8 168 6 198 -4z m-338 -252 c13 -16 12 -17 -3 -4 -10 7
-18 15 -18 17 0 8 8 3 21 -13z"/>
<path d="M5155 5793 c-135 -29 -264 -94 -338 -171 -100 -103 -205 -275 -234
-385 -24 -89 -21 -290 4 -378 49 -166 150 -286 305 -361 150 -73 191 -83 353
-82 124 0 149 4 220 27 44 15 109 43 144 64 70 41 181 144 181 167 0 14 -59
66 -75 66 -4 0 -29 -18 -55 -40 -63 -52 -138 -86 -225 -101 -85 -14 -156 -2
-242 41 -31 16 -62 26 -67 23 -6 -3 -8 -3 -4 2 4 4 -8 25 -26 45 -79 87 -123
211 -128 360 l-3 85 395 0 c217 0 401 4 409 9 11 7 12 29 6 107 -3 54 -12 120
-20 148 -47 178 -196 323 -376 366 -60 14 -178 18 -224 8z m139 -165 c66 -65
98 -142 100 -239 2 -102 8 -99 -225 -99 -227 0 -210 -9 -184 95 35 136 102
239 180 279 50 26 71 20 129 -36z"/>
<path d="M8171 5789 c-95 -11 -208 -42 -270 -74 -62 -31 -148 -119 -161 -164
-11 -40 -3 -106 14 -119 18 -15 147 -52 177 -52 40 0 108 29 119 51 6 10 10
49 10 87 0 63 3 73 28 100 32 34 69 47 105 38 39 -10 135 -93 163 -142 23 -40
29 -62 32 -133 2 -47 -1 -98 -6 -112 -11 -29 -10 -28 -227 -80 -244 -58 -337
-108 -425 -227 -115 -155 -121 -304 -17 -410 86 -88 208 -135 347 -135 107 1
194 21 303 72 l85 39 23 -24 c12 -13 57 -37 100 -54 96 -37 178 -39 290 -9
103 28 111 34 100 82 -5 21 -12 41 -15 45 -4 3 -30 1 -59 -5 -67 -14 -90 -1
-106 61 -7 30 -11 179 -11 444 0 373 -1 404 -20 465 -37 121 -143 208 -292
241 -88 20 -200 26 -287 15z m217 -879 c4 -259 6 -252 -70 -289 -100 -51 -193
-35 -252 42 -51 67 -54 204 -6 283 19 30 81 87 119 109 37 21 149 55 176 53
l30 -3 3 -195z"/>
</g>
</svg>
